<svg xmlns="http://www.w3.org/2000/svg" xmlns:xlink="http://www.w3.org/1999/xlink" version="1.1" x="0px" y="0px" viewBox="0 0 100 125" style="enable-background:new 0 0 100 100;" xml:space="preserve"><path d="M95,56.816c0,8.512-6.925,15.437-15.437,15.437h-6.387c-0.853,0-1.545-0.692-1.545-1.545s0.692-1.545,1.545-1.545h6.387  c6.808,0,12.347-5.539,12.347-12.347c0-3.615-1.615-7.05-4.431-9.426c-2.833-2.391-6.513-3.409-10.098-2.798  c-0.429,0.072-0.872-0.039-1.215-0.309c-0.343-0.27-0.556-0.673-0.586-1.108c-0.414-6.039-5.276-10.96-11.31-11.447  c-0.711-0.057-1.291-0.594-1.402-1.299c-1.248-7.913-7.979-13.657-16.004-13.657c-8.934,0-16.203,7.269-16.203,16.204  c0,1.139,0.116,2.258,0.341,3.344c0.025,0.082,0.043,0.166,0.054,0.251c0.695,3.096,2.29,5.915,4.657,8.161  c0.619,0.587,0.645,1.565,0.058,2.184c-0.588,0.619-1.565,0.645-2.184,0.058c-2.632-2.497-4.462-5.589-5.367-8.988  c-1.38-0.383-2.806-0.576-4.252-0.576c-8.754,0-15.876,7.122-15.876,15.877s7.122,15.877,15.876,15.877h2.857  c0.853,0,1.545,0.692,1.545,1.545s-0.692,1.545-1.545,1.545h-2.857C13.508,72.252,5,63.744,5,53.286s8.508-18.967,18.966-18.967  c1.241,0,2.47,0.119,3.675,0.356c-0.048-0.561-0.073-1.129-0.073-1.7c0-10.639,8.655-19.294,19.293-19.294  c9.16,0,16.903,6.286,18.838,15.108c6.459,1.035,11.63,6.152,12.764,12.568c3.962-0.251,7.896,1.046,11.006,3.67  C92.985,47.992,95,52.288,95,56.816z M64.21,78.366H39.818l2.412-2.169c0.635-0.571,0.686-1.548,0.116-2.182  c-0.571-0.635-1.548-0.685-2.182-0.116l-5.407,4.863c-0.01,0.009-0.017,0.02-0.027,0.03c-0.045,0.043-0.085,0.091-0.125,0.139  c-0.026,0.032-0.055,0.061-0.078,0.095c-0.04,0.057-0.072,0.118-0.104,0.18c-0.015,0.03-0.035,0.058-0.048,0.089  c-0.032,0.074-0.055,0.152-0.076,0.232c-0.006,0.023-0.016,0.044-0.021,0.066c-0.021,0.1-0.032,0.204-0.033,0.311  c0,0.003-0.001,0.005-0.001,0.008c0,0,0,0,0,0c0,0,0,0,0,0c0,0.109,0.012,0.216,0.034,0.319c0.004,0.019,0.012,0.036,0.017,0.055  c0.021,0.084,0.045,0.166,0.079,0.244c0.012,0.028,0.03,0.053,0.044,0.081c0.033,0.065,0.067,0.13,0.109,0.189  c0.021,0.03,0.047,0.057,0.07,0.085c0.043,0.052,0.086,0.103,0.135,0.149c0.009,0.008,0.015,0.018,0.024,0.026l5.407,4.863  c0.295,0.266,0.665,0.396,1.033,0.396c0.423,0,0.844-0.172,1.149-0.512c0.571-0.635,0.519-1.611-0.115-2.182l-2.412-2.169H64.21  c0.853,0,1.545-0.692,1.545-1.545S65.063,78.366,64.21,78.366z M65.703,61.32c-0.021-0.083-0.045-0.164-0.079-0.242  c-0.012-0.028-0.03-0.053-0.044-0.08c-0.033-0.065-0.067-0.129-0.109-0.189c-0.022-0.031-0.049-0.059-0.073-0.089  c-0.042-0.05-0.083-0.1-0.131-0.145c-0.009-0.009-0.016-0.02-0.025-0.028l-5.407-4.863c-0.633-0.569-1.61-0.519-2.182,0.116  c-0.571,0.634-0.519,1.611,0.116,2.182l2.412,2.169H35.79c-0.853,0-1.545,0.692-1.545,1.545s0.692,1.545,1.545,1.545h24.392  l-2.412,2.169c-0.635,0.571-0.686,1.548-0.116,2.182c0.305,0.339,0.727,0.512,1.149,0.512c0.368,0,0.738-0.131,1.033-0.396  l5.407-4.863c0.01-0.009,0.016-0.019,0.025-0.028c0.047-0.045,0.089-0.095,0.131-0.145c0.024-0.03,0.051-0.057,0.073-0.089  c0.042-0.059,0.075-0.123,0.108-0.188c0.014-0.027,0.032-0.053,0.044-0.081c0.034-0.077,0.058-0.158,0.079-0.241  c0.005-0.02,0.014-0.038,0.018-0.058c0.022-0.103,0.034-0.21,0.034-0.319s-0.012-0.216-0.034-0.319  C65.717,61.358,65.708,61.34,65.703,61.32z"/><text x="0" y="115" fill="#000000" font-size="5px" font-weight="bold" font-family="'Helvetica Neue', Helvetica, Arial-Unicode, Arial, Sans-serif">Created by Win Ningsih</text><text x="0" y="120" fill="#000000" font-size="5px" font-weight="bold" font-family="'Helvetica Neue', Helvetica, Arial-Unicode, Arial, Sans-serif">from the Noun Project</text></svg>