<?xml version="1.0" encoding="UTF-8" standalone="no"?>
<!DOCTYPE svg PUBLIC "-//W3C//DTD SVG 1.1//EN" "http://www.w3.org/Graphics/SVG/1.1/DTD/svg11.dtd">
<svg xmlns="http://www.w3.org/2000/svg" version="1.1" viewBox="0.00 0.00 862.00 782.00">
<g stroke-width="2.00" fill="none" stroke-linecap="butt">
<path stroke="#919091" vector-effect="non-scaling-stroke" d="
  M 208.71 255.24
  Q 206.46 256.18 203.11 256.03
  Q 189.64 255.42 169.63 255.96
  Q 132.29 256.96 99.57 274.02
  Q 68.08 290.44 47.16 317.66
  C 17.09 356.77 7.49 406.52 18.14 454.77
  Q 20.21 464.14 23.90 473.93
  Q 29.46 488.67 36.64 500.65
  Q 53.22 528.32 78.65 546.51
  C 102.68 563.68 131.25 572.37 161.26 572.84
  Q 180.12 573.14 202.26 572.82
  Q 213.17 572.67 217.04 563.74
  C 221.13 554.30 213.31 545.64 204.00 545.70
  Q 182.86 545.84 168.78 545.72
  Q 154.64 545.60 147.12 544.51
  Q 97.06 537.25 68.10 498.39
  Q 43.57 465.46 41.26 424.32
  Q 39.31 389.50 53.29 359.79
  C 70.97 322.19 107.07 292.21 148.77 285.16
  Q 162.12 282.91 173.51 282.79
  Q 189.41 282.62 218.01 282.83
  Q 228.58 282.91 233.64 274.23
  Q 235.45 271.14 236.30 263.55
  Q 237.16 255.98 238.01 251.01
  Q 247.51 196.06 287.52 156.99
  Q 340.42 105.35 414.79 105.09
  Q 437.51 105.01 458.50 109.59
  Q 489.30 116.30 515.86 132.91
  C 525.33 138.84 532.74 145.10 542.33 153.27
  Q 545.22 155.73 547.99 157.06
  C 554.88 160.38 563.00 156.92 565.74 149.79
  C 568.40 142.88 565.19 138.00 560.54 133.46
  C 524.41 98.12 475.75 79.60 425.26 78.19
  C 405.48 77.63 384.99 78.98 366.24 83.45
  Q 329.88 92.11 297.28 113.59
  Q 288.83 119.16 281.25 125.54
  Q 238.72 161.38 220.07 212.86
  Q 214.41 228.48 211.04 251.04
  Q 210.86 252.21 210.32 253.46
  Q 209.74 254.80 208.71 255.24"
/>
<path stroke="#919091" vector-effect="non-scaling-stroke" d="
  M 668.29 289.95
  Q 665.10 281.40 664.35 279.40
  Q 657.54 261.26 647.67 245.12
  C 633.46 221.87 612.97 202.57 588.41 190.50
  Q 560.34 176.72 529.89 175.98
  Q 477.35 174.70 433.78 204.27
  Q 427.01 208.86 419.67 215.67
  Q 415.97 219.11 413.73 222.98
  Q 408.33 232.29 415.95 239.94
  C 420.91 244.92 428.61 244.34 433.56 239.56
  Q 465.98 208.33 511.16 203.87
  Q 528.11 202.19 545.34 205.17
  Q 588.08 212.56 615.18 245.43
  Q 620.71 252.12 626.23 262.02
  Q 633.47 275.02 636.28 282.75
  Q 642.08 298.73 644.17 304.09
  Q 649.30 317.29 663.10 318.38
  Q 675.93 319.39 685.73 321.17
  Q 716.52 326.77 740.40 348.02
  Q 765.10 370.00 774.44 401.70
  C 785.77 440.18 776.61 482.41 749.04 511.72
  C 730.14 531.80 704.47 543.78 676.28 545.31
  Q 670.07 545.64 659.51 545.68
  Q 633.67 545.78 622.85 545.70
  C 616.11 545.65 610.08 546.04 606.33 551.30
  C 603.17 555.72 603.12 561.25 606.12 565.74
  Q 610.77 572.70 619.51 572.75
  Q 623.90 572.77 665.00 572.95
  Q 684.85 573.03 703.18 568.64
  C 757.99 555.49 799.90 507.36 805.75 451.22
  Q 808.72 422.75 801.07 395.70
  Q 790.86 359.57 764.46 333.05
  C 745.47 313.97 720.67 300.26 694.00 295.05
  Q 682.97 292.89 671.37 291.94
  Q 670.21 291.85 669.42 291.44
  Q 668.71 291.08 668.29 289.95"
/>
<path stroke="#919091" vector-effect="non-scaling-stroke" d="
  M 510.82 480.35
  Q 517.47 486.84 532.42 501.61
  Q 537.40 506.53 541.09 508.13
  C 544.99 509.81 550.74 508.01 553.96 505.75
  C 559.01 502.20 560.78 495.84 559.24 490.01
  C 558.32 486.52 554.84 482.57 552.34 480.06
  Q 528.88 456.50 508.25 435.46
  Q 499.66 426.70 488.40 430.63
  C 484.53 431.98 480.62 435.77 477.79 438.78
  Q 466.39 450.91 462.12 455.12
  Q 447.91 469.17 437.40 479.65
  C 432.27 484.77 427.49 490.37 429.74 497.45
  Q 432.80 507.08 443.18 508.07
  Q 448.13 508.54 452.71 504.90
  C 462.01 497.53 470.22 488.55 478.96 478.85
  A 0.69 0.68 -31.4 0 1 480.13 479.13
  Q 480.28 479.68 480.28 480.67
  Q 480.80 642.26 480.76 651.63
  A 0.30 0.30 0.0 0 1 480.34 651.90
  Q 479.79 651.65 479.59 651.44
  Q 469.55 640.91 458.89 630.61
  C 453.53 625.43 448.39 622.00 441.00 624.71
  Q 434.65 627.04 432.05 632.80
  C 428.94 639.67 431.94 645.27 436.81 650.06
  Q 455.47 668.42 481.77 694.92
  Q 484.62 697.78 488.68 699.82
  C 496.66 703.83 504.64 700.00 510.70 693.95
  Q 523.61 681.07 553.25 651.25
  Q 557.21 647.26 558.10 645.37
  Q 560.87 639.46 559.08 633.47
  C 557.11 626.90 548.43 621.70 541.58 624.30
  Q 536.94 626.06 532.83 630.34
  Q 517.02 646.85 511.69 652.03
  Q 510.83 652.86 510.78 651.67
  Q 510.66 648.84 510.66 646.04
  Q 510.72 589.55 510.58 506.75
  Q 510.55 488.52 510.30 480.58
  Q 510.27 479.81 510.82 480.35"
/>
<path stroke="#919091" vector-effect="non-scaling-stroke" d="
  M 334.01 480.99
  Q 335.08 481.88 336.15 482.91
  Q 349.60 495.88 357.91 503.55
  Q 360.69 506.11 364.01 507.41
  Q 366.82 508.51 370.73 507.54
  Q 380.51 505.09 381.99 495.00
  C 382.36 492.48 382.03 489.48 380.91 487.35
  Q 378.95 483.63 376.04 480.59
  Q 355.51 459.12 335.59 438.86
  Q 332.81 436.03 331.25 434.72
  Q 327.68 431.70 326.50 431.21
  Q 318.11 427.74 310.68 431.84
  C 308.23 433.19 304.98 436.20 303.24 437.99
  Q 282.32 459.53 262.36 478.86
  C 256.73 484.30 250.84 490.42 253.15 497.81
  Q 255.83 506.40 265.33 508.43
  Q 271.36 509.73 276.73 504.95
  Q 290.84 492.38 300.88 481.38
  Q 301.76 480.41 303.36 479.47
  A 0.32 0.32 0.0 0 1 303.84 479.74
  Q 303.35 580.58 303.83 651.63
  Q 303.84 653.08 302.82 652.04
  Q 289.14 638.05 281.86 630.96
  C 276.56 625.79 272.03 622.33 264.40 624.66
  Q 255.18 627.48 253.59 637.34
  C 252.83 642.08 256.35 646.82 259.77 650.13
  Q 285.35 674.89 303.85 693.68
  C 310.18 700.10 317.86 703.64 326.66 699.08
  Q 331.08 696.79 334.12 693.62
  Q 351.54 675.43 378.03 648.78
  C 384.07 642.70 383.36 632.08 376.21 627.08
  Q 366.43 620.25 357.51 628.36
  Q 347.98 637.01 335.32 651.21
  Q 333.97 652.73 333.87 650.70
  Q 333.78 648.80 333.78 646.50
  Q 333.77 632.90 333.58 481.19
  A 0.26 0.26 0.0 0 1 334.01 480.99"
/>
</g>
<path fill="#fcfcfc" d="
  M 862.00 0.00
  L 862.00 782.00
  L 0.00 782.00
  L 0.00 0.00
  L 862.00 0.00
  Z
  M 208.71 255.24
  Q 206.46 256.18 203.11 256.03
  Q 189.64 255.42 169.63 255.96
  Q 132.29 256.96 99.57 274.02
  Q 68.08 290.44 47.16 317.66
  C 17.09 356.77 7.49 406.52 18.14 454.77
  Q 20.21 464.14 23.90 473.93
  Q 29.46 488.67 36.64 500.65
  Q 53.22 528.32 78.65 546.51
  C 102.68 563.68 131.25 572.37 161.26 572.84
  Q 180.12 573.14 202.26 572.82
  Q 213.17 572.67 217.04 563.74
  C 221.13 554.30 213.31 545.64 204.00 545.70
  Q 182.86 545.84 168.78 545.72
  Q 154.64 545.60 147.12 544.51
  Q 97.06 537.25 68.10 498.39
  Q 43.57 465.46 41.26 424.32
  Q 39.31 389.50 53.29 359.79
  C 70.97 322.19 107.07 292.21 148.77 285.16
  Q 162.12 282.91 173.51 282.79
  Q 189.41 282.62 218.01 282.83
  Q 228.58 282.91 233.64 274.23
  Q 235.45 271.14 236.30 263.55
  Q 237.16 255.98 238.01 251.01
  Q 247.51 196.06 287.52 156.99
  Q 340.42 105.35 414.79 105.09
  Q 437.51 105.01 458.50 109.59
  Q 489.30 116.30 515.86 132.91
  C 525.33 138.84 532.74 145.10 542.33 153.27
  Q 545.22 155.73 547.99 157.06
  C 554.88 160.38 563.00 156.92 565.74 149.79
  C 568.40 142.88 565.19 138.00 560.54 133.46
  C 524.41 98.12 475.75 79.60 425.26 78.19
  C 405.48 77.63 384.99 78.98 366.24 83.45
  Q 329.88 92.11 297.28 113.59
  Q 288.83 119.16 281.25 125.54
  Q 238.72 161.38 220.07 212.86
  Q 214.41 228.48 211.04 251.04
  Q 210.86 252.21 210.32 253.46
  Q 209.74 254.80 208.71 255.24
  Z
  M 668.29 289.95
  Q 665.10 281.40 664.35 279.40
  Q 657.54 261.26 647.67 245.12
  C 633.46 221.87 612.97 202.57 588.41 190.50
  Q 560.34 176.72 529.89 175.98
  Q 477.35 174.70 433.78 204.27
  Q 427.01 208.86 419.67 215.67
  Q 415.97 219.11 413.73 222.98
  Q 408.33 232.29 415.95 239.94
  C 420.91 244.92 428.61 244.34 433.56 239.56
  Q 465.98 208.33 511.16 203.87
  Q 528.11 202.19 545.34 205.17
  Q 588.08 212.56 615.18 245.43
  Q 620.71 252.12 626.23 262.02
  Q 633.47 275.02 636.28 282.75
  Q 642.08 298.73 644.17 304.09
  Q 649.30 317.29 663.10 318.38
  Q 675.93 319.39 685.73 321.17
  Q 716.52 326.77 740.40 348.02
  Q 765.10 370.00 774.44 401.70
  C 785.77 440.18 776.61 482.41 749.04 511.72
  C 730.14 531.80 704.47 543.78 676.28 545.31
  Q 670.07 545.64 659.51 545.68
  Q 633.67 545.78 622.85 545.70
  C 616.11 545.65 610.08 546.04 606.33 551.30
  C 603.17 555.72 603.12 561.25 606.12 565.74
  Q 610.77 572.70 619.51 572.75
  Q 623.90 572.77 665.00 572.95
  Q 684.85 573.03 703.18 568.64
  C 757.99 555.49 799.90 507.36 805.75 451.22
  Q 808.72 422.75 801.07 395.70
  Q 790.86 359.57 764.46 333.05
  C 745.47 313.97 720.67 300.26 694.00 295.05
  Q 682.97 292.89 671.37 291.94
  Q 670.21 291.85 669.42 291.44
  Q 668.71 291.08 668.29 289.95
  Z
  M 510.82 480.35
  Q 517.47 486.84 532.42 501.61
  Q 537.40 506.53 541.09 508.13
  C 544.99 509.81 550.74 508.01 553.96 505.75
  C 559.01 502.20 560.78 495.84 559.24 490.01
  C 558.32 486.52 554.84 482.57 552.34 480.06
  Q 528.88 456.50 508.25 435.46
  Q 499.66 426.70 488.40 430.63
  C 484.53 431.98 480.62 435.77 477.79 438.78
  Q 466.39 450.91 462.12 455.12
  Q 447.91 469.17 437.40 479.65
  C 432.27 484.77 427.49 490.37 429.74 497.45
  Q 432.80 507.08 443.18 508.07
  Q 448.13 508.54 452.71 504.90
  C 462.01 497.53 470.22 488.55 478.96 478.85
  A 0.69 0.68 -31.4 0 1 480.13 479.13
  Q 480.28 479.68 480.28 480.67
  Q 480.80 642.26 480.76 651.63
  A 0.30 0.30 0.0 0 1 480.34 651.90
  Q 479.79 651.65 479.59 651.44
  Q 469.55 640.91 458.89 630.61
  C 453.53 625.43 448.39 622.00 441.00 624.71
  Q 434.65 627.04 432.05 632.80
  C 428.94 639.67 431.94 645.27 436.81 650.06
  Q 455.47 668.42 481.77 694.92
  Q 484.62 697.78 488.68 699.82
  C 496.66 703.83 504.64 700.00 510.70 693.95
  Q 523.61 681.07 553.25 651.25
  Q 557.21 647.26 558.10 645.37
  Q 560.87 639.46 559.08 633.47
  C 557.11 626.90 548.43 621.70 541.58 624.30
  Q 536.94 626.06 532.83 630.34
  Q 517.02 646.85 511.69 652.03
  Q 510.83 652.86 510.78 651.67
  Q 510.66 648.84 510.66 646.04
  Q 510.72 589.55 510.58 506.75
  Q 510.55 488.52 510.30 480.58
  Q 510.27 479.81 510.82 480.35
  Z
  M 334.01 480.99
  Q 335.08 481.88 336.15 482.91
  Q 349.60 495.88 357.91 503.55
  Q 360.69 506.11 364.01 507.41
  Q 366.82 508.51 370.73 507.54
  Q 380.51 505.09 381.99 495.00
  C 382.36 492.48 382.03 489.48 380.91 487.35
  Q 378.95 483.63 376.04 480.59
  Q 355.51 459.12 335.59 438.86
  Q 332.81 436.03 331.25 434.72
  Q 327.68 431.70 326.50 431.21
  Q 318.11 427.74 310.68 431.84
  C 308.23 433.19 304.98 436.20 303.24 437.99
  Q 282.32 459.53 262.36 478.86
  C 256.73 484.30 250.84 490.42 253.15 497.81
  Q 255.83 506.40 265.33 508.43
  Q 271.36 509.73 276.73 504.95
  Q 290.84 492.38 300.88 481.38
  Q 301.76 480.41 303.36 479.47
  A 0.32 0.32 0.0 0 1 303.84 479.74
  Q 303.35 580.58 303.83 651.63
  Q 303.84 653.08 302.82 652.04
  Q 289.14 638.05 281.86 630.96
  C 276.56 625.79 272.03 622.33 264.40 624.66
  Q 255.18 627.48 253.59 637.34
  C 252.83 642.08 256.35 646.82 259.77 650.13
  Q 285.35 674.89 303.85 693.68
  C 310.18 700.10 317.86 703.64 326.66 699.08
  Q 331.08 696.79 334.12 693.62
  Q 351.54 675.43 378.03 648.78
  C 384.07 642.70 383.36 632.08 376.21 627.08
  Q 366.43 620.25 357.51 628.36
  Q 347.98 637.01 335.32 651.21
  Q 333.97 652.73 333.87 650.70
  Q 333.78 648.80 333.78 646.50
  Q 333.77 632.90 333.58 481.19
  A 0.26 0.26 0.0 0 1 334.01 480.99
  Z"
/>
<path fill="#252426" d="
  M 210.32 253.46
  Q 210.86 252.21 211.04 251.04
  Q 214.41 228.48 220.07 212.86
  Q 238.72 161.38 281.25 125.54
  Q 288.83 119.16 297.28 113.59
  Q 329.88 92.11 366.24 83.45
  C 384.99 78.98 405.48 77.63 425.26 78.19
  C 475.75 79.60 524.41 98.12 560.54 133.46
  C 565.19 138.00 568.40 142.88 565.74 149.79
  C 563.00 156.92 554.88 160.38 547.99 157.06
  Q 545.22 155.73 542.33 153.27
  C 532.74 145.10 525.33 138.84 515.86 132.91
  Q 489.30 116.30 458.50 109.59
  Q 437.51 105.01 414.79 105.09
  Q 340.42 105.35 287.52 156.99
  Q 247.51 196.06 238.01 251.01
  Q 237.16 255.98 236.30 263.55
  Q 235.45 271.14 233.64 274.23
  Q 228.58 282.91 218.01 282.83
  Q 189.41 282.62 173.51 282.79
  Q 162.12 282.91 148.77 285.16
  C 107.07 292.21 70.97 322.19 53.29 359.79
  Q 39.31 389.50 41.26 424.32
  Q 43.57 465.46 68.10 498.39
  Q 97.06 537.25 147.12 544.51
  Q 154.64 545.60 168.78 545.72
  Q 182.86 545.84 204.00 545.70
  C 213.31 545.64 221.13 554.30 217.04 563.74
  Q 213.17 572.67 202.26 572.82
  Q 180.12 573.14 161.26 572.84
  C 131.25 572.37 102.68 563.68 78.65 546.51
  Q 53.22 528.32 36.64 500.65
  Q 29.46 488.67 23.90 473.93
  Q 20.21 464.14 18.14 454.77
  C 7.49 406.52 17.09 356.77 47.16 317.66
  Q 68.08 290.44 99.57 274.02
  Q 132.29 256.96 169.63 255.96
  Q 189.64 255.42 203.11 256.03
  Q 206.46 256.18 208.71 255.24
  Q 209.74 254.80 210.32 253.46
  Z"
/>
<path fill="#252426" d="
  M 669.42 291.44
  Q 670.21 291.85 671.37 291.94
  Q 682.97 292.89 694.00 295.05
  C 720.67 300.26 745.47 313.97 764.46 333.05
  Q 790.86 359.57 801.07 395.70
  Q 808.72 422.75 805.75 451.22
  C 799.90 507.36 757.99 555.49 703.18 568.64
  Q 684.85 573.03 665.00 572.95
  Q 623.90 572.77 619.51 572.75
  Q 610.77 572.70 606.12 565.74
  C 603.12 561.25 603.17 555.72 606.33 551.30
  C 610.08 546.04 616.11 545.65 622.85 545.70
  Q 633.67 545.78 659.51 545.68
  Q 670.07 545.64 676.28 545.31
  C 704.47 543.78 730.14 531.80 749.04 511.72
  C 776.61 482.41 785.77 440.18 774.44 401.70
  Q 765.10 370.00 740.40 348.02
  Q 716.52 326.77 685.73 321.17
  Q 675.93 319.39 663.10 318.38
  Q 649.30 317.29 644.17 304.09
  Q 642.08 298.73 636.28 282.75
  Q 633.47 275.02 626.23 262.02
  Q 620.71 252.12 615.18 245.43
  Q 588.08 212.56 545.34 205.17
  Q 528.11 202.19 511.16 203.87
  Q 465.98 208.33 433.56 239.56
  C 428.61 244.34 420.91 244.92 415.95 239.94
  Q 408.33 232.29 413.73 222.98
  Q 415.97 219.11 419.67 215.67
  Q 427.01 208.86 433.78 204.27
  Q 477.35 174.70 529.89 175.98
  Q 560.34 176.72 588.41 190.50
  C 612.97 202.57 633.46 221.87 647.67 245.12
  Q 657.54 261.26 664.35 279.40
  Q 665.10 281.40 668.29 289.95
  Q 668.71 291.08 669.42 291.44
  Z"
/>
<path fill="#252426" d="
  M 510.82 480.35
  Q 510.27 479.81 510.30 480.58
  Q 510.55 488.52 510.58 506.75
  Q 510.72 589.55 510.66 646.04
  Q 510.66 648.84 510.78 651.67
  Q 510.83 652.86 511.69 652.03
  Q 517.02 646.85 532.83 630.34
  Q 536.94 626.06 541.58 624.30
  C 548.43 621.70 557.11 626.90 559.08 633.47
  Q 560.87 639.46 558.10 645.37
  Q 557.21 647.26 553.25 651.25
  Q 523.61 681.07 510.70 693.95
  C 504.64 700.00 496.66 703.83 488.68 699.82
  Q 484.62 697.78 481.77 694.92
  Q 455.47 668.42 436.81 650.06
  C 431.94 645.27 428.94 639.67 432.05 632.80
  Q 434.65 627.04 441.00 624.71
  C 448.39 622.00 453.53 625.43 458.89 630.61
  Q 469.55 640.91 479.59 651.44
  Q 479.79 651.65 480.34 651.90
  A 0.30 0.30 0.0 0 0 480.76 651.63
  Q 480.80 642.26 480.28 480.67
  Q 480.28 479.68 480.13 479.13
  A 0.69 0.68 -31.4 0 0 478.96 478.85
  C 470.22 488.55 462.01 497.53 452.71 504.90
  Q 448.13 508.54 443.18 508.07
  Q 432.80 507.08 429.74 497.45
  C 427.49 490.37 432.27 484.77 437.40 479.65
  Q 447.91 469.17 462.12 455.12
  Q 466.39 450.91 477.79 438.78
  C 480.62 435.77 484.53 431.98 488.40 430.63
  Q 499.66 426.70 508.25 435.46
  Q 528.88 456.50 552.34 480.06
  C 554.84 482.57 558.32 486.52 559.24 490.01
  C 560.78 495.84 559.01 502.20 553.96 505.75
  C 550.74 508.01 544.99 509.81 541.09 508.13
  Q 537.40 506.53 532.42 501.61
  Q 517.47 486.84 510.82 480.35
  Z"
/>
<path fill="#252426" d="
  M 334.01 480.99
  A 0.26 0.26 0.0 0 0 333.58 481.19
  Q 333.77 632.90 333.78 646.50
  Q 333.78 648.80 333.87 650.70
  Q 333.97 652.73 335.32 651.21
  Q 347.98 637.01 357.51 628.36
  Q 366.43 620.25 376.21 627.08
  C 383.36 632.08 384.07 642.70 378.03 648.78
  Q 351.54 675.43 334.12 693.62
  Q 331.08 696.79 326.66 699.08
  C 317.86 703.64 310.18 700.10 303.85 693.68
  Q 285.35 674.89 259.77 650.13
  C 256.35 646.82 252.83 642.08 253.59 637.34
  Q 255.18 627.48 264.40 624.66
  C 272.03 622.33 276.56 625.79 281.86 630.96
  Q 289.14 638.05 302.82 652.04
  Q 303.84 653.08 303.83 651.63
  Q 303.35 580.58 303.84 479.74
  A 0.32 0.32 0.0 0 0 303.36 479.47
  Q 301.76 480.41 300.88 481.38
  Q 290.84 492.38 276.73 504.95
  Q 271.36 509.73 265.33 508.43
  Q 255.83 506.40 253.15 497.81
  C 250.84 490.42 256.73 484.30 262.36 478.86
  Q 282.32 459.53 303.24 437.99
  C 304.98 436.20 308.23 433.19 310.68 431.84
  Q 318.11 427.74 326.50 431.21
  Q 327.68 431.70 331.25 434.72
  Q 332.81 436.03 335.59 438.86
  Q 355.51 459.12 376.04 480.59
  Q 378.95 483.63 380.91 487.35
  C 382.03 489.48 382.36 492.48 381.99 495.00
  Q 380.51 505.09 370.73 507.54
  Q 366.82 508.51 364.01 507.41
  Q 360.69 506.11 357.91 503.55
  Q 349.60 495.88 336.15 482.91
  Q 335.08 481.88 334.01 480.99
  Z"
/>
</svg>
